<svg
    xmlns="http://www.w3.org/2000/svg"    
    fill="#c7c7d1"
    viewBox="0 0 38 38"
    id="nostr_icon"
  >
    <title>Nostr</title>
    <g>
      <path
        d="m2.47,5.8c-.82.97-1.46,2.1-1.85,3.34,2.22-.5,5.17-.62,6.84-.75.52-2.14,2-3.77,4.48-3.66,1.07.05,2.01.74,2.66,1.8.48-.51,1.12-.85,1.97-.97.06,0,.19-.01.29-.01-1.76-1.92-4.27-3.14-7.08-3.14-.51,0-1.01.05-1.51.13-.1,0-.23.02-.4.06-.01,0-.03,0-.04,0s-.02,0-.04,0c-1.94.47-3.4.09-4.23-1.04-.09-.12-.44-.65-.55-1.58-.61.63-1.01,1.67-.67,2.78.27.88.78,1.35,1.33,1.62-.84.05-1.54-.11-2.24-.64-.41-.31-.67-.65-1.1-1.54C-.07,2.83-.03,3.53.05,3.89c.1.48.35,1.02.67,1.33.49.48,1.19.59,1.76.58Z"
      ></path>
      <ellipse
        cx="11.95"
        cy="10.22"
        rx="2.25"
        ry="3.85"
      ></ellipse>
      <ellipse
        cx="16.9"
        cy="10.08"
        rx="1.76"
        ry="3.06"
      ></ellipse>
      <path
        d="m8.19,33.71s-.18-4.72,1.6-8.24c.63-1.23,2.06-2.93,3.13-3.85.57-.5,1.14-.92,1.7-1.31.29-.17.56-.35.82-.54,4.73-2.9,8.9-2.26,12.35-1.76,0,0,.82-2.44-2.56-3.7-1.84-.68-4.01-1.23-5.82-1.61-.26.47-.59.87-.98,1.17-.28.21-.97.75-2.24.6-.64-.08-1.13-.34-1.52-.72-.66,1.09-1.61,1.8-2.71,1.9-3.05.26-4.59-2.3-4.69-5.13-2.29.22-5.41,1.63-7.07,2.45v24.53c2.45,1.26,5.14,2.09,8,2.4v-6.19Z"
      ></path>
    </g>
  </svg>